<svg xmlns="http://www.w3.org/2000/svg" width="24" height="24" viewBox="0 0 24 24">
  <metadata><?xpacket begin="﻿" id="W5M0MpCehiHzreSzNTczkc9d"?>
<x:xmpmeta xmlns:x="adobe:ns:meta/" x:xmptk="Adobe XMP Core 5.6-c142 79.160924, 2017/07/13-01:06:39        ">
   <rdf:RDF xmlns:rdf="http://www.w3.org/1999/02/22-rdf-syntax-ns#">
      <rdf:Description rdf:about=""/>
   </rdf:RDF>
</x:xmpmeta>
                                                                                                    
                                                                                                    
                                                                                                    
                                                                                                    
                                                                                                    
                                                                                                    
                                                                                                    
                                                                                                    
                                                                                                    
                                                                                                    
                                                                                                    
                                                                                                    
                                                                                                    
                                                                                                    
                                                                                                    
                                                                                                    
                                                                                                    
                                                                                                    
                                                                                                    
                                                                                                    
                           
<?xpacket end="w"?></metadata>
<defs>
    <style>
      .cls-1 {
        fill: #fff;
        fill-rule: evenodd;
      }
    </style>
  </defs>
  <path id="dribbble" class="cls-1" d="M528,5002a12,12,0,1,0,12,12A12,12,0,0,0,528,5002Zm7.354,6.22a9.312,9.312,0,0,1,2,5.34,18.339,18.339,0,0,0-3.829-.43h-0.009a15.548,15.548,0,0,0-2.712.24c-0.207-.51-0.415-0.99-0.626-1.46A14.564,14.564,0,0,0,535.353,5008.22ZM528,5004.64a9.325,9.325,0,0,1,5.839,2.05,12.141,12.141,0,0,1-4.6,3.29,32.828,32.828,0,0,0-3.231-5.12A9.341,9.341,0,0,1,528,5004.64Zm-4.135.97a29.029,29.029,0,0,1,3.341,5.09,26.753,26.753,0,0,1-7.4,1.04h-0.147c-0.29,0-.539,0-0.748-0.01A9.4,9.4,0,0,1,523.864,5005.61Zm-5.228,8.39c0-.04,0-0.09,0-0.14,0.268,0.01.61,0.02,1.023,0.02h0a29.42,29.42,0,0,0,8.5-1.22c0.182,0.4.361,0.81,0.539,1.24a14.914,14.914,0,0,0-5.271,3.11,16.125,16.125,0,0,0-2.582,3.01A9.284,9.284,0,0,1,518.636,5014Zm9.363,9.36a9.337,9.337,0,0,1-5.562-1.84,13.656,13.656,0,0,1,2.172-2.68,12.748,12.748,0,0,1,4.866-2.94,46.314,46.314,0,0,1,1.848,6.85A9.4,9.4,0,0,1,528,5023.36Zm5.3-1.66a48.4,48.4,0,0,0-1.728-6.29,13.075,13.075,0,0,1,1.92-.14h0.027a16.771,16.771,0,0,1,3.675.44A9.353,9.353,0,0,1,533.3,5021.7Z" transform="translate(-516 -5002)"/>
</svg>
