<svg xmlns="http://www.w3.org/2000/svg" width="24" height="24" viewBox="0 0 24 24">
  <metadata><?xpacket begin="﻿" id="W5M0MpCehiHzreSzNTczkc9d"?>
<x:xmpmeta xmlns:x="adobe:ns:meta/" x:xmptk="Adobe XMP Core 5.6-c142 79.160924, 2017/07/13-01:06:39        ">
   <rdf:RDF xmlns:rdf="http://www.w3.org/1999/02/22-rdf-syntax-ns#">
      <rdf:Description rdf:about=""/>
   </rdf:RDF>
</x:xmpmeta>
                                                                                                    
                                                                                                    
                                                                                                    
                                                                                                    
                                                                                                    
                                                                                                    
                                                                                                    
                                                                                                    
                                                                                                    
                                                                                                    
                                                                                                    
                                                                                                    
                                                                                                    
                                                                                                    
                                                                                                    
                                                                                                    
                                                                                                    
                                                                                                    
                                                                                                    
                                                                                                    
                           
<?xpacket end="w"?></metadata>
<defs>
    <style>
      .cls-1 {
        fill: #fff;
        fill-rule: evenodd;
      }
    </style>
  </defs>
  <path id="google_plus" data-name="google plus" class="cls-1" d="M656.069,5003.53v2.96h-1.526v-2.96h-2.988V5002h2.988v-2.95h1.526V5002h2.939v1.53h-2.939Zm-9.353-3.56a4.847,4.847,0,0,1,2.123,3.89c0,2.57-1.241,3.69-2.808,5.07s-0.653,2.21,1.8,3.95,3.135,5.6-.032,8.4-12.8,2.42-12.8-2.77,7.249-5.27,7.84-5.27,0.685-.16.194-0.69a1.9,1.9,0,0,1-.358-2.67c-1.635.07-6.141-.82-6.141-4.97s4.343-5.92,5.909-5.92h7.806a9.263,9.263,0,0,1-1.174.75A4.639,4.639,0,0,1,646.716,4999.97Zm-8.95,17.59c0,2.4,1.732,4.01,4.962,4.01s5.131-1.08,5.131-3.32-2.136-3.36-3.331-4.28C640.119,5013.97,637.766,5015.15,637.766,5017.56Zm4.345-17.78c-4.573,0-2.81,9.08,1.078,9.08C648.348,5008.86,645.67,4999.64,642.111,4999.78Z" transform="translate(-635 -4999)"/>
</svg>
