<svg xmlns="http://www.w3.org/2000/svg" width="20.719" height="27.04" viewBox="0 0 20.719 27.04">
  <metadata><?xpacket begin="﻿" id="W5M0MpCehiHzreSzNTczkc9d"?>
<x:xmpmeta xmlns:x="adobe:ns:meta/" x:xmptk="Adobe XMP Core 5.6-c142 79.160924, 2017/07/13-01:06:39        ">
   <rdf:RDF xmlns:rdf="http://www.w3.org/1999/02/22-rdf-syntax-ns#">
      <rdf:Description rdf:about=""/>
   </rdf:RDF>
</x:xmpmeta>
                                                                                                    
                                                                                                    
                                                                                                    
                                                                                                    
                                                                                                    
                                                                                                    
                                                                                                    
                                                                                                    
                                                                                                    
                                                                                                    
                                                                                                    
                                                                                                    
                                                                                                    
                                                                                                    
                                                                                                    
                                                                                                    
                                                                                                    
                                                                                                    
                                                                                                    
                                                                                                    
                           
<?xpacket end="w"?></metadata>
<defs>
    <style>
      .cls-1 {
        fill: #fff;
        fill-rule: evenodd;
      }
    </style>
  </defs>
  <path id="pinterest" class="cls-1" d="M952.076,6409.35c-7.3,0-10.976,5.28-10.976,9.69,0,2.67,1,5.04,3.145,5.92a0.524,0.524,0,0,0,.769-0.39c0.071-.27.239-0.95,0.314-1.24a0.747,0.747,0,0,0-.221-0.86,4.51,4.51,0,0,1-1.014-3.05,7.3,7.3,0,0,1,7.562-7.42c4.124,0,6.39,2.54,6.39,5.94,0,4.47-1.959,8.25-4.869,8.25a2.4,2.4,0,0,1-2.424-2.99c0.462-1.97,1.356-4.09,1.356-5.51a2.067,2.067,0,0,0-2.071-2.32c-1.643,0-2.962,1.71-2.962,4.01a6.083,6.083,0,0,0,.49,2.46s-1.681,7.19-1.976,8.45a17.558,17.558,0,0,0-.046,5.89,0.2,0.2,0,0,0,.365.09,16.61,16.61,0,0,0,2.773-5.08c0.188-.69,1.08-4.26,1.08-4.26a4.384,4.384,0,0,0,3.752,1.93c4.937,0,8.287-4.54,8.287-10.63C961.8,6413.63,957.941,6409.35,952.076,6409.35Z" transform="translate(-941.094 -6409.34)"/>
</svg>
