<svg xmlns="http://www.w3.org/2000/svg" width="24" height="24" viewBox="0 0 24 24">
  <metadata><?xpacket begin="﻿" id="W5M0MpCehiHzreSzNTczkc9d"?>
<x:xmpmeta xmlns:x="adobe:ns:meta/" x:xmptk="Adobe XMP Core 5.6-c142 79.160924, 2017/07/13-01:06:39        ">
   <rdf:RDF xmlns:rdf="http://www.w3.org/1999/02/22-rdf-syntax-ns#">
      <rdf:Description rdf:about=""/>
   </rdf:RDF>
</x:xmpmeta>
                                                                                                    
                                                                                                    
                                                                                                    
                                                                                                    
                                                                                                    
                                                                                                    
                                                                                                    
                                                                                                    
                                                                                                    
                                                                                                    
                                                                                                    
                                                                                                    
                                                                                                    
                                                                                                    
                                                                                                    
                                                                                                    
                                                                                                    
                                                                                                    
                                                                                                    
                                                                                                    
                           
<?xpacket end="w"?></metadata>
<defs>
    <style>
      .cls-1 {
        fill: #fff;
        fill-rule: evenodd;
      }
    </style>
  </defs>
  <path id="skype" class="cls-1" d="M482.249,5016.63a10.951,10.951,0,0,0,.132-1.6,10.7,10.7,0,0,0-10.7-10.7,10.809,10.809,0,0,0-1.621.13,6.1,6.1,0,0,0-8.832,8.3,10.69,10.69,0,0,0,10.453,12.97,10.106,10.106,0,0,0,2.213-.24A6.093,6.093,0,0,0,482.249,5016.63Zm-5.574,3.06a4.126,4.126,0,0,1-1.85,1.4,7.452,7.452,0,0,1-2.887.51,7.011,7.011,0,0,1-3.3-.69,4.315,4.315,0,0,1-1.5-1.34,2.855,2.855,0,0,1-.576-1.62,1.05,1.05,0,0,1,.345-0.79,1.263,1.263,0,0,1,.881-0.32,1.09,1.09,0,0,1,.734.25,1.946,1.946,0,0,1,.512.76,5.164,5.164,0,0,0,.558.99,2.374,2.374,0,0,0,.844.66,4.1,4.1,0,0,0,3.409-.27,1.528,1.528,0,0,0,.762-1.3,1.3,1.3,0,0,0-.411-1,2.6,2.6,0,0,0-1.062-.59,17.372,17.372,0,0,0-1.738-.43,13.566,13.566,0,0,1-2.44-.74,3.916,3.916,0,0,1-1.559-1.14,2.823,2.823,0,0,1-.576-1.8,2.92,2.92,0,0,1,.608-1.83,3.774,3.774,0,0,1,1.763-1.22,7.673,7.673,0,0,1,2.712-.43,7.238,7.238,0,0,1,2.153.28,4.568,4.568,0,0,1,1.508.76,3.231,3.231,0,0,1,.877.98,2.168,2.168,0,0,1,.276,1.01,1.2,1.2,0,0,1-1.208,1.17,1.062,1.062,0,0,1-.714-0.21,2.974,2.974,0,0,1-.531-0.71,3.217,3.217,0,0,0-.887-1.1,2.781,2.781,0,0,0-1.66-.39,3.025,3.025,0,0,0-1.71.43,1.206,1.206,0,0,0-.651,1.02,1,1,0,0,0,.222.65,1.982,1.982,0,0,0,.609.47,4,4,0,0,0,.784.3c0.264,0.07.7,0.18,1.31,0.32,0.762,0.17,1.452.35,2.07,0.55a6.7,6.7,0,0,1,1.577.72,3.026,3.026,0,0,1,1.015,1.07,3.18,3.18,0,0,1,.365,1.59A3.464,3.464,0,0,1,476.675,5019.69Z" transform="translate(-460 -5003)"/>
</svg>
