<svg xmlns="http://www.w3.org/2000/svg" width="24" height="19" viewBox="0 0 24 19">
  <metadata><?xpacket begin="﻿" id="W5M0MpCehiHzreSzNTczkc9d"?>
<x:xmpmeta xmlns:x="adobe:ns:meta/" x:xmptk="Adobe XMP Core 5.6-c142 79.160924, 2017/07/13-01:06:39        ">
   <rdf:RDF xmlns:rdf="http://www.w3.org/1999/02/22-rdf-syntax-ns#">
      <rdf:Description rdf:about=""/>
   </rdf:RDF>
</x:xmpmeta>
                                                                                                    
                                                                                                    
                                                                                                    
                                                                                                    
                                                                                                    
                                                                                                    
                                                                                                    
                                                                                                    
                                                                                                    
                                                                                                    
                                                                                                    
                                                                                                    
                                                                                                    
                                                                                                    
                                                                                                    
                                                                                                    
                                                                                                    
                                                                                                    
                                                                                                    
                                                                                                    
                           
<?xpacket end="w"?></metadata>
<defs>
    <style>
      .cls-1 {
        fill: #fff;
        fill-rule: evenodd;
      }
    </style>
  </defs>
  <path id="twitter" class="cls-1" d="M600,5007.28a8.816,8.816,0,0,1-2.748.76,5.148,5.148,0,0,0,2.064-2.62,8.07,8.07,0,0,1-3.09,1.07h0a5,5,0,0,0-3.58-1.49,4.888,4.888,0,0,0-4.951,4.82,4.721,4.721,0,0,0,.127,1.08h0a14.421,14.421,0,0,1-10.489-5.01,4.761,4.761,0,0,0,1.5,6.38,3.269,3.269,0,0,1-2.162-.55,4.672,4.672,0,0,0,3.819,4.72,4.02,4.02,0,0,1-2.062.15c0.159,1.42,2.2,3.27,4.426,3.27a8.252,8.252,0,0,1-6.857,2.01,15.168,15.168,0,0,0,7.744,2.13,13.566,13.566,0,0,0,13.858-14.09c0-.01,0-0.02,0-0.03s0-.04,0-0.06,0-.04,0-0.07A8.371,8.371,0,0,0,600,5007.28Z" transform="translate(-576 -5005)"/>
</svg>
