<svg id="browser" xmlns="http://www.w3.org/2000/svg" width="153" height="109" viewBox="0 0 153 109">
  <metadata><?xpacket begin="﻿" id="W5M0MpCehiHzreSzNTczkc9d"?>
<x:xmpmeta xmlns:x="adobe:ns:meta/" x:xmptk="Adobe XMP Core 5.6-c142 79.160924, 2017/07/13-01:06:39        ">
   <rdf:RDF xmlns:rdf="http://www.w3.org/1999/02/22-rdf-syntax-ns#">
      <rdf:Description rdf:about=""/>
   </rdf:RDF>
</x:xmpmeta>
                                                                                                    
                                                                                                    
                                                                                                    
                                                                                                    
                                                                                                    
                                                                                                    
                                                                                                    
                                                                                                    
                                                                                                    
                                                                                                    
                                                                                                    
                                                                                                    
                                                                                                    
                                                                                                    
                                                                                                    
                                                                                                    
                                                                                                    
                                                                                                    
                                                                                                    
                                                                                                    
                           
<?xpacket end="w"?></metadata>
<defs>
    <style>
      .cls-1 {
        fill: #ef9137;
        fill-opacity: 0;
        stroke: #df4343;
        stroke-linejoin: round;
        stroke-width: 3px;
      }

      .cls-2 {
        fill: #df4343;
        fill-rule: evenodd;
      }
    </style>
  </defs>
  <rect id="browser-2" data-name="browser" class="cls-1" x="1.5" y="1.5" width="150" height="106" rx="8" ry="8"/>
  <path id="WWW" class="cls-2" d="M724,3691H873v3H724v-3Zm104.437-16a4.022,4.022,0,1,1-4.437,4A4.236,4.236,0,0,1,828.437,3675ZM844,3675a4.022,4.022,0,1,1-4.438,4A4.236,4.236,0,0,1,844,3675Zm15.562,0a4.022,4.022,0,1,1-4.437,4A4.236,4.236,0,0,1,859.562,3675Zm-101.857,63.67h4.59l4.17-13.55q0.1-.315.218-0.69c0.075-.25.147-0.51,0.217-0.79,0.07,0.28.143,0.54,0.218,0.79s0.147,0.48.217,0.69l4.11,13.55h4.59l6.75-21.86H778.8a1.776,1.776,0,0,0-1.08.33,1.437,1.437,0,0,0-.57.77l-3,11.4c-0.09.35-.178,0.72-0.262,1.12s-0.168.82-.248,1.26c-0.09-.45-0.195-0.87-0.315-1.27s-0.235-.76-0.345-1.11l-3.51-11.4a1.54,1.54,0,0,0-.592-0.81,1.925,1.925,0,0,0-1.088-.29h-1.5a1.685,1.685,0,0,0-1.072.34,1.55,1.55,0,0,0-.578.76l-3.54,11.4q-0.165.555-.345,1.17c-0.12.42-.23,0.86-0.33,1.33a10.678,10.678,0,0,0-.225-1.32c-0.1-.42-0.2-0.81-0.3-1.18l-3-11.4a1.384,1.384,0,0,0-.577-0.8,1.922,1.922,0,0,0-1.1-.3h-4.26Zm32.13,0h4.59l4.17-13.55q0.1-.315.218-0.69c0.075-.25.147-0.51,0.217-0.79,0.07,0.28.143,0.54,0.218,0.79s0.147,0.48.217,0.69l4.11,13.55h4.59l6.75-21.86h-3.99a1.776,1.776,0,0,0-1.08.33,1.437,1.437,0,0,0-.57.77l-3,11.4c-0.09.35-.178,0.72-0.262,1.12s-0.168.82-.248,1.26c-0.09-.45-0.195-0.87-0.315-1.27s-0.235-.76-0.345-1.11l-3.51-11.4a1.54,1.54,0,0,0-.592-0.81,1.925,1.925,0,0,0-1.088-.29h-1.5a1.685,1.685,0,0,0-1.072.34,1.55,1.55,0,0,0-.578.76l-3.54,11.4q-0.165.555-.345,1.17c-0.12.42-.23,0.86-0.33,1.33a10.678,10.678,0,0,0-.225-1.32c-0.1-.42-0.2-0.81-0.3-1.18l-3-11.4a1.388,1.388,0,0,0-.577-0.8,1.922,1.922,0,0,0-1.1-.3h-4.26Zm32.13,0h4.59l4.17-13.55q0.1-.315.218-0.69c0.075-.25.147-0.51,0.217-0.79,0.07,0.28.143,0.54,0.218,0.79s0.147,0.48.217,0.69l4.11,13.55h4.59l6.75-21.86h-3.99a1.776,1.776,0,0,0-1.08.33,1.437,1.437,0,0,0-.57.77l-3,11.4c-0.09.35-.178,0.72-0.262,1.12s-0.168.82-.248,1.26c-0.09-.45-0.195-0.87-0.315-1.27s-0.235-.76-0.345-1.11l-3.51-11.4a1.54,1.54,0,0,0-.592-0.81,1.925,1.925,0,0,0-1.088-.29h-1.5a1.685,1.685,0,0,0-1.072.34,1.55,1.55,0,0,0-.578.76l-3.54,11.4q-0.165.555-.345,1.17c-0.12.42-.23,0.86-0.33,1.33a10.678,10.678,0,0,0-.225-1.32c-0.1-.42-0.2-0.81-0.3-1.18l-3-11.4a1.388,1.388,0,0,0-.577-0.8,1.922,1.922,0,0,0-1.1-.3h-4.26Z" transform="translate(-722.5 -3662.5)"/>
</svg>
