<svg xmlns="http://www.w3.org/2000/svg" xmlns:xlink="http://www.w3.org/1999/xlink" width="100" height="80" viewBox="0 0 100 80">
  <metadata><?xpacket begin="﻿" id="W5M0MpCehiHzreSzNTczkc9d"?>
<x:xmpmeta xmlns:x="adobe:ns:meta/" x:xmptk="Adobe XMP Core 5.6-c142 79.160924, 2017/07/13-01:06:39        ">
   <rdf:RDF xmlns:rdf="http://www.w3.org/1999/02/22-rdf-syntax-ns#">
      <rdf:Description rdf:about=""/>
   </rdf:RDF>
</x:xmpmeta>
                                                                                                    
                                                                                                    
                                                                                                    
                                                                                                    
                                                                                                    
                                                                                                    
                                                                                                    
                                                                                                    
                                                                                                    
                                                                                                    
                                                                                                    
                                                                                                    
                                                                                                    
                                                                                                    
                                                                                                    
                                                                                                    
                                                                                                    
                                                                                                    
                                                                                                    
                                                                                                    
                           
<?xpacket end="w"?></metadata>
<defs>
    <style>
      .cls-1 {
        fill: #858585;
        fill-rule: evenodd;
        filter: url(#filter);
      }
    </style>
    <filter id="filter" x="434" y="4116" width="100" height="80" filterUnits="userSpaceOnUse">
      <feFlood result="flood" flood-color="#874ab6"/>
      <feComposite result="composite" operator="in" in2="SourceGraphic"/>
      <feBlend result="blend" in2="SourceGraphic"/>
    </filter>
  </defs>
  <path id="megaphone_" data-name="megaphone " class="cls-1" d="M525.2,4163.09v26.43a3.1,3.1,0,0,1-3.367,3.34c-0.56,0-1.945-1.19-3.648-2.97v-70.92c1.7-1.79,3.088-2.97,3.648-2.97,2.525,0,3.367,1.5,3.367,3.34v27.09c4.559,0.13,8.811,3.8,8.811,8.33S529.754,4162.97,525.2,4163.09Zm-54.156,6.45c0.21,0,0-30.22,0-30.22,23.122,0,36.828-10.07,44.054-16.98v64.18C507.867,4179.61,494.161,4169.54,471.039,4169.54Zm-13.469,26.45-6.734-26.52H444.1a46.3,46.3,0,0,1-2.913-10.03h-3.823A3.357,3.357,0,0,1,434,4156.1v-3.34a3.35,3.35,0,0,1,3.367-3.34h3.823a46.3,46.3,0,0,1,2.913-10.03h23.57v30.08h-6.734l0.848,3.34h3.361l1.683,6.68h-3.347l4.189,16.5h-10.1Z" transform="translate(-434 -4116)"/>
</svg>
