<svg xmlns="http://www.w3.org/2000/svg" width="83" height="150" viewBox="0 0 83 150">
  <metadata><?xpacket begin="﻿" id="W5M0MpCehiHzreSzNTczkc9d"?>
<x:xmpmeta xmlns:x="adobe:ns:meta/" x:xmptk="Adobe XMP Core 5.6-c142 79.160924, 2017/07/13-01:06:39        ">
   <rdf:RDF xmlns:rdf="http://www.w3.org/1999/02/22-rdf-syntax-ns#">
      <rdf:Description rdf:about=""/>
   </rdf:RDF>
</x:xmpmeta>
                                                                                                    
                                                                                                    
                                                                                                    
                                                                                                    
                                                                                                    
                                                                                                    
                                                                                                    
                                                                                                    
                                                                                                    
                                                                                                    
                                                                                                    
                                                                                                    
                                                                                                    
                                                                                                    
                                                                                                    
                                                                                                    
                                                                                                    
                                                                                                    
                                                                                                    
                                                                                                    
                           
<?xpacket end="w"?></metadata>
<defs>
    <style>
      .cls-1 {
        fill: #00c59e;
        fill-rule: evenodd;
      }
    </style>
  </defs>
  <path id="mobile" class="cls-1" d="M179.541,3792H123.459A13.531,13.531,0,0,1,110,3778.4V3655.59A13.529,13.529,0,0,1,123.459,3642h56.082A13.529,13.529,0,0,1,193,3655.59V3778.4A13.531,13.531,0,0,1,179.541,3792Zm10.318-137.76a9.021,9.021,0,0,0-8.973-9.07H122.113a9.021,9.021,0,0,0-8.972,9.07v125.07a9.012,9.012,0,0,0,8.972,9.06h58.773a9.013,9.013,0,0,0,8.973-9.06V3654.24Zm-73.129,10.87h69.54v103.32H116.73V3665.11Zm34.546,106.04a6.8,6.8,0,1,1-6.73,6.8A6.769,6.769,0,0,1,151.276,3771.15Zm-3.141,9.07a0.9,0.9,0,0,0,.9.9h4.487a0.9,0.9,0,0,0,.9-0.9v-4.53a0.9,0.9,0,0,0-.9-0.91h-4.487a0.9,0.9,0,0,0-.9.91v4.53Zm1.122-5.12h4.038a0.807,0.807,0,0,1,.807.81v4.08a0.815,0.815,0,0,1-.807.82h-4.038a0.816,0.816,0,0,1-.808-0.82v-4.08A0.807,0.807,0,0,1,149.257,3775.1Z" transform="translate(-110 -3642)"/>
</svg>
