<svg xmlns="http://www.w3.org/2000/svg" xmlns:xlink="http://www.w3.org/1999/xlink" width="100" height="78" viewBox="0 0 100 78">
  <metadata><?xpacket begin="﻿" id="W5M0MpCehiHzreSzNTczkc9d"?>
<x:xmpmeta xmlns:x="adobe:ns:meta/" x:xmptk="Adobe XMP Core 5.6-c142 79.160924, 2017/07/13-01:06:39        ">
   <rdf:RDF xmlns:rdf="http://www.w3.org/1999/02/22-rdf-syntax-ns#">
      <rdf:Description rdf:about=""/>
   </rdf:RDF>
</x:xmpmeta>
                                                                                                    
                                                                                                    
                                                                                                    
                                                                                                    
                                                                                                    
                                                                                                    
                                                                                                    
                                                                                                    
                                                                                                    
                                                                                                    
                                                                                                    
                                                                                                    
                                                                                                    
                                                                                                    
                                                                                                    
                                                                                                    
                                                                                                    
                                                                                                    
                                                                                                    
                                                                                                    
                           
<?xpacket end="w"?></metadata>
<defs>
    <style>
      .cls-1 {
        fill: #858585;
        fill-rule: evenodd;
        filter: url(#filter);
      }
    </style>
    <filter id="filter" x="1716" y="4108" width="100" height="78" filterUnits="userSpaceOnUse">
      <feFlood result="flood" flood-color="#2f84e5"/>
      <feComposite result="composite" operator="in" in2="SourceGraphic"/>
      <feBlend result="blend" in2="SourceGraphic"/>
    </filter>
  </defs>
  <path id="movie_tape" data-name="movie tape" class="cls-1" d="M1755.42,4108a39,39,0,1,1-39.42,39A39.214,39.214,0,0,1,1755.42,4108Zm0.07,35.95a3.25,3.25,0,1,1-3.28,3.25A3.271,3.271,0,0,1,1755.49,4143.95Zm32.61-12.56c7.84-4.47,21.19-6.07,25.46,1.26h0q5.61,9.615-3.89,22.59l-2.14,2.94q-5.115,6.9-6.15,10.63a9.238,9.238,0,0,0,1.11,7.42q2.835,4.86,9.13,4.06c2.28-.28,3.62-0.06,4.04.66a1.671,1.671,0,0,1-.79,2.58q-3.48,1.995-8.49.31a12.758,12.758,0,0,1-7.31-5.61q-5.67-9.735,5.23-22.69l1.27-1.52q9.33-11.07,4.58-19.21c-1.41-2.43-4.99-3.25-8.94-3.11a28.8,28.8,0,0,0-12.11,3.16m-33.68-13.66a8.125,8.125,0,1,1-8.21,8.13A8.175,8.175,0,0,1,1755.42,4121.2Zm-18.07,17.88a8.125,8.125,0,1,1-8.21,8.12A8.173,8.173,0,0,1,1737.35,4139.08Zm18.07,17.87a8.125,8.125,0,1,1-8.21,8.13A8.175,8.175,0,0,1,1755.42,4156.95Zm18.07-17.87a8.125,8.125,0,1,1-8.21,8.12A8.173,8.173,0,0,1,1773.49,4139.08Z" transform="translate(-1716 -4108)"/>
</svg>
